<svg xmlns="http://www.w3.org/2000/svg" xmlns:xlink="http://www.w3.org/1999/xlink" width="500" zoomAndPan="magnify" viewBox="0 0 375 374.999991" height="500" preserveAspectRatio="xMidYMid meet" version="1.0"><defs><g/><clipPath id="b8eb09d803"><path d="M 0 0 L 374.855469 0 L 374.855469 375 L 0 375 Z M 0 0 " clip-rule="nonzero"/></clipPath></defs><g clip-path="url(#b8eb09d803)"><path fill="#262626" d="M 187.355469 0 C 83.800781 0 -0.144531 83.945312 -0.144531 187.5 C -0.144531 291.054688 83.800781 375 187.355469 375 C 290.90625 375 374.855469 291.054688 374.855469 187.5 C 374.855469 83.945312 290.90625 0 187.355469 0 " fill-opacity="1" fill-rule="nonzero"/></g><g fill="#38b6ff" fill-opacity="1"><g transform="translate(100.225647, 274.645216)"><g><path d="M 123.703125 -35.5625 L 50.828125 -35.5625 L 38.3125 0 L 8.515625 0 L 70.875 -174.296875 L 103.921875 -174.296875 L 166.28125 0 L 136.234375 0 Z M 115.6875 -58.84375 L 87.390625 -139.734375 L 58.84375 -58.84375 Z M 115.6875 -58.84375 "/></g></g></g></svg>