<svg xmlns="http://www.w3.org/2000/svg" xmlns:xlink="http://www.w3.org/1999/xlink" width="500" zoomAndPan="magnify" viewBox="0 0 375 374.999991" height="500" preserveAspectRatio="xMidYMid meet" version="1.0"><defs><g/></defs><path fill="#262626" d="M 17.25 0 L 357.75 0 C 362.324219 0 366.710938 1.816406 369.949219 5.050781 C 373.183594 8.289062 375 12.675781 375 17.25 L 375 357.75 C 375 362.324219 373.183594 366.710938 369.949219 369.949219 C 366.710938 373.183594 362.324219 375 357.75 375 L 17.25 375 C 12.675781 375 8.289062 373.183594 5.050781 369.949219 C 1.816406 366.710938 0 362.324219 0 357.75 L 0 17.25 C 0 12.675781 1.816406 8.289062 5.050781 5.050781 C 8.289062 1.816406 12.675781 0 17.25 0 " fill-opacity="1" fill-rule="nonzero"/><g fill="#38b6ff" fill-opacity="1"><g transform="translate(100.230466, 274.958306)"><g><path d="M 123.703125 -35.5625 L 50.828125 -35.5625 L 38.3125 0 L 8.515625 0 L 70.859375 -174.28125 L 103.921875 -174.28125 L 166.265625 0 L 136.21875 0 Z M 115.6875 -58.84375 L 87.390625 -139.734375 L 58.84375 -58.84375 Z M 115.6875 -58.84375 "/></g></g></g></svg>