<svg xmlns="http://www.w3.org/2000/svg" width="500" height="500" version="1.0" viewBox="0 0 375 375"><path fill="#262626" d="M17.25 0h340.5c4.574 0 8.96 1.816 12.2 5.05a17.262 17.262 0 0 1 5.05 12.2v340.5c0 4.574-1.816 8.96-5.05 12.2a17.262 17.262 0 0 1-12.2 5.05H17.25c-4.574 0-8.96-1.816-12.2-5.05A17.262 17.262 0 0 1 0 357.75V17.25c0-4.574 1.816-8.96 5.05-12.2A17.262 17.262 0 0 1 17.25 0"/><path fill="#38b6ff" d="M223.934 239.396h-72.875l-12.516 35.562h-29.797l62.344-174.28h33.062l62.344 174.28H236.45Zm-8.016-23.281-28.297-80.891-28.547 80.89Zm0 0"/></svg>