<svg xmlns="http://www.w3.org/2000/svg" xmlns:xlink="http://www.w3.org/1999/xlink" width="500" zoomAndPan="magnify" viewBox="0 0 375 374.999991" height="500" preserveAspectRatio="xMidYMid meet" version="1.0"><defs><g/><clipPath id="05ef25ab46"><path d="M 17.25 0 L 357.75 0 C 362.324219 0 366.710938 1.816406 369.949219 5.050781 C 373.183594 8.289062 375 12.675781 375 17.25 L 375 357.75 C 375 362.324219 373.183594 366.710938 369.949219 369.949219 C 366.710938 373.183594 362.324219 375 357.75 375 L 17.25 375 C 12.675781 375 8.289062 373.183594 5.050781 369.949219 C 1.816406 366.710938 0 362.324219 0 357.75 L 0 17.25 C 0 12.675781 1.816406 8.289062 5.050781 5.050781 C 8.289062 1.816406 12.675781 0 17.25 0 " clip-rule="nonzero"/></clipPath></defs><g clip-path="url(#05ef25ab46)"><path fill="#000000" d="M 0 0 L 374.414062 0 L 374.414062 374.414062 L 0 374.414062 Z M 0 0 " fill-opacity="1" fill-rule="nonzero"/></g><g fill="#38b6ff" fill-opacity="1"><g transform="translate(77.668432, 310.712768)"><g><path d="M -7.9375 -29.03125 L -3.96875 -32.078125 L -3.671875 -38.5 C 1.421875 -50.914062 6.664062 -62.828125 12.0625 -74.234375 C 17.457031 -85.640625 23.113281 -97.351562 29.03125 -109.375 C 30.851562 -113.238281 32.734375 -117.101562 34.671875 -120.96875 C 36.609375 -124.84375 38.492188 -128.816406 40.328125 -132.890625 C 40.117188 -133.710938 40.015625 -134.582031 40.015625 -135.5 C 40.015625 -136.414062 40.222656 -137.484375 40.640625 -138.703125 C 43.484375 -142.773438 45.769531 -146.441406 47.5 -149.703125 C 49.238281 -152.960938 50.921875 -156.320312 52.546875 -159.78125 C 54.378906 -163.851562 56.363281 -167.925781 58.5 -172 C 60.644531 -176.070312 63.34375 -180.046875 66.59375 -183.921875 L 68.734375 -186.96875 L 72.09375 -186.671875 C 72.914062 -187.078125 73.785156 -187.429688 74.703125 -187.734375 C 75.617188 -188.035156 76.789062 -188.1875 78.21875 -188.1875 L 83.703125 -187.28125 C 90.429688 -190.332031 96.390625 -194.757812 101.578125 -200.5625 C 106.773438 -206.375 112.019531 -213.351562 117.3125 -221.5 L 120.984375 -226.6875 L 125.875 -223.640625 C 126.882812 -223.023438 128.507812 -222.410156 130.75 -221.796875 C 133 -221.191406 135.34375 -220.476562 137.78125 -219.65625 C 142.0625 -218.644531 146.238281 -217.472656 150.3125 -216.140625 C 154.382812 -214.816406 157.539062 -213.035156 159.78125 -210.796875 L 161.3125 -208.046875 C 161.71875 -205.804688 162.070312 -203.769531 162.375 -201.9375 C 162.6875 -200.101562 163.046875 -198.269531 163.453125 -196.4375 C 164.265625 -192.164062 164.972656 -187.941406 165.578125 -183.765625 C 166.191406 -179.585938 166.601562 -174.953125 166.8125 -169.859375 C 167.832031 -165.785156 168.800781 -161.660156 169.71875 -157.484375 C 170.632812 -153.316406 171.5 -149.195312 172.3125 -145.125 C 173.332031 -139.21875 174.453125 -133.5625 175.671875 -128.15625 C 176.890625 -122.757812 178.519531 -117.617188 180.5625 -112.734375 C 182.59375 -112.734375 183.8125 -112.628906 184.21875 -112.421875 C 186.664062 -113.441406 189.519531 -114.054688 192.78125 -114.265625 L 196.75 -114.5625 L 197.96875 -110.90625 C 198.375 -110.289062 198.882812 -109.675781 199.5 -109.0625 C 200.113281 -108.457031 200.828125 -107.847656 201.640625 -107.234375 C 204.898438 -107.023438 207.289062 -106.359375 208.8125 -105.234375 C 210.34375 -104.117188 211.617188 -103.054688 212.640625 -102.046875 C 213.046875 -101.640625 213.550781 -101.179688 214.15625 -100.671875 C 214.769531 -100.160156 215.28125 -99.800781 215.6875 -99.59375 L 221.1875 -97.453125 L 218.140625 -91.65625 C 215.898438 -87.375 212.488281 -83.195312 207.90625 -79.125 C 203.320312 -75.050781 198.175781 -71.691406 192.46875 -69.046875 C 192.875 -67.617188 193.128906 -66.289062 193.234375 -65.0625 C 193.335938 -63.84375 193.59375 -62.421875 194 -60.796875 C 194.8125 -56.722656 195.472656 -52.492188 195.984375 -48.109375 C 196.492188 -43.734375 196.441406 -39.203125 195.828125 -34.515625 C 193.796875 -29.222656 191.40625 -24.488281 188.65625 -20.3125 C 185.90625 -16.132812 182.644531 -12.363281 178.875 -9 C 175.101562 -5.644531 170.875 -2.898438 166.1875 -0.765625 C 161.507812 1.367188 156.625 2.539062 151.53125 2.75 C 148.675781 2.132812 146.585938 1.421875 145.265625 0.609375 C 143.941406 -0.203125 142.769531 -1.015625 141.75 -1.828125 C 140.125 -3.054688 138.800781 -3.875 137.78125 -4.28125 L 133.8125 -6.109375 L 135.03125 -10.6875 C 135.644531 -12.320312 135.59375 -13.75 134.875 -14.96875 C 134.164062 -16.1875 132.691406 -17.816406 130.453125 -19.859375 C 129.640625 -20.472656 128.925781 -21.132812 128.3125 -21.84375 C 127.695312 -22.550781 126.984375 -23.316406 126.171875 -24.140625 L 120.0625 -31.15625 L 130.140625 -33.90625 C 136.253906 -35.539062 140.328125 -37.628906 142.359375 -40.171875 C 144.398438 -42.722656 145.21875 -47.253906 144.8125 -53.765625 C 139.71875 -54.785156 135.539062 -54.9375 132.28125 -54.21875 C 129.019531 -53.507812 125.765625 -52.75 122.515625 -51.9375 C 117.828125 -50.71875 113.242188 -49.648438 108.765625 -48.734375 C 104.285156 -47.816406 99.394531 -47.359375 94.09375 -47.359375 C 90.632812 -47.359375 86.96875 -47.660156 83.09375 -48.265625 L 79.734375 -48.578125 L 78.828125 -51.9375 C 78.828125 -52.34375 78.570312 -52.800781 78.0625 -53.3125 C 77.550781 -53.820312 77.09375 -54.28125 76.6875 -54.6875 C 75.664062 -55.90625 74.441406 -57.53125 73.015625 -59.5625 C 71.585938 -61.601562 71.28125 -64.15625 72.09375 -67.21875 C 70.675781 -69.457031 69.863281 -71.796875 69.65625 -74.234375 C 68.84375 -72.609375 68.179688 -71.03125 67.671875 -69.5 C 67.160156 -67.976562 66.703125 -66.503906 66.296875 -65.078125 L 65.078125 -61.109375 L 61.109375 -60.484375 C 60.691406 -60.078125 60.332031 -59.46875 60.03125 -58.65625 C 59.726562 -57.84375 59.675781 -57.234375 59.875 -56.828125 L 61.109375 -53.46875 L 58.046875 -50.71875 C 57.640625 -50.101562 57.128906 -49.59375 56.515625 -49.1875 C 55.910156 -48.78125 55.398438 -48.375 54.984375 -47.96875 C 54.578125 -45.726562 54.019531 -43.585938 53.3125 -41.546875 C 52.601562 -39.515625 51.835938 -37.476562 51.015625 -35.4375 C 50.003906 -32.175781 49.039062 -29.019531 48.125 -25.96875 C 47.207031 -22.914062 46.75 -19.859375 46.75 -16.796875 L 45.515625 -12.828125 C 44.503906 -11.203125 43.234375 -9.976562 41.703125 -9.15625 C 40.171875 -8.34375 38.691406 -7.632812 37.265625 -7.03125 C 35.234375 -6.21875 33.8125 -5.398438 33 -4.578125 L 32.078125 -0.609375 L 27.5 0 C 24.851562 0.613281 22.96875 1.019531 21.84375 1.21875 C 20.71875 1.425781 19.445312 1.53125 18.03125 1.53125 L 14.046875 1.21875 C 11.609375 -1.21875 9.625 -3.097656 8.09375 -4.421875 C 6.570312 -5.753906 4.789062 -6.925781 2.75 -7.9375 L 0.921875 -10.390625 C 0.0976562 -12.015625 -0.410156 -13.488281 -0.609375 -14.8125 C -0.816406 -16.132812 -1.125 -17.507812 -1.53125 -18.9375 C -1.9375 -21.582031 -2.546875 -23.414062 -3.359375 -24.4375 Z M 89.515625 -108.453125 C 86.660156 -104.378906 83.910156 -100.101562 81.265625 -95.625 C 82.691406 -95.832031 84.066406 -95.9375 85.390625 -95.9375 C 86.710938 -95.9375 88.085938 -96.035156 89.515625 -96.234375 C 96.640625 -96.640625 103.253906 -97.148438 109.359375 -97.765625 C 115.472656 -98.378906 122.097656 -99.394531 129.234375 -100.8125 C 127.597656 -108.351562 125.8125 -116.039062 123.875 -123.875 C 121.945312 -131.71875 119.863281 -139.613281 117.625 -147.5625 L 116.09375 -144.5 C 111 -139.007812 106.109375 -133.101562 101.421875 -126.78125 C 96.742188 -120.46875 92.878906 -114.460938 89.828125 -108.765625 Z M 89.515625 -108.453125 "/></g></g></g></svg>